HIERARCHY
ROOT Hips
{
    OFFSET 0.000000 0.000000 0.000000
    CHANNELS 6 Xposition Yposition Zposition Zrotation Xrotation Yrotation
    JOINT Spine
    {
        OFFSET -0.000000 0.084000 0.000000
        CHANNELS 3 Zrotation Xrotation Yrotation
        JOINT Spine1
        {
            OFFSET -0.000000 0.216247 0.000000
            CHANNELS 3 Zrotation Xrotation Yrotation
            JOINT Neck
            {
                OFFSET -0.000000 0.215359 0.019578
                CHANNELS 3 Zrotation Xrotation Yrotation
                JOINT Head
                {
                    OFFSET -0.000000 0.143414 -0.020488
                    CHANNELS 3 Zrotation Xrotation Yrotation
                    End Site
                    {
                        OFFSET -0.000000 0.204877 0.000000
                    }
                }
            }
            JOINT LeftShoulder
            {
                OFFSET 0.040109 0.191272 -0.003631
                CHANNELS 3 Zrotation Xrotation Yrotation
                JOINT LeftArm
                {
                    OFFSET 0.138349 0.000000 0.000000
                    CHANNELS 3 Zrotation Xrotation Yrotation
                    JOINT LeftForeArm
                    {
                        OFFSET 0.335349 0.000000 0.000000
                        CHANNELS 3 Zrotation Xrotation Yrotation
                        JOINT LeftHand
                        {
                            OFFSET 0.276368 0.000000 0.000000
                            CHANNELS 3 Zrotation Xrotation Yrotation
                            End Site
                            {
                                OFFSET 0.153658 0.000000 0.000000
                            }
                        }
                    }
                }
            }
            JOINT RightShoulder
            {
                OFFSET -0.041533 0.191272 -0.003631
                CHANNELS 3 Zrotation Xrotation Yrotation
                JOINT RightArm
                {
                    OFFSET -0.138349 0.000000 0.000000
                    CHANNELS 3 Zrotation Xrotation Yrotation
                    JOINT RightForeArm
                    {
                        OFFSET -0.335349 0.000000 0.000000
                        CHANNELS 3 Zrotation Xrotation Yrotation
                        JOINT RightHand
                        {
                            OFFSET -0.276368 0.000000 0.000000
                            CHANNELS 3 Zrotation Xrotation Yrotation
                            End Site
                            {
                                OFFSET -0.153658 0.000000 0.000000
                            }
                        }
                    }
                }
            }
        }
    }
    JOINT LeftUpLeg
    {
        OFFSET 0.102438 0.000000 0.000000
        CHANNELS 3 Zrotation Xrotation Yrotation
        JOINT LeftLeg
        {
            OFFSET -0.000000 -0.442852 0.000000
            CHANNELS 3 Zrotation Xrotation Yrotation
            JOINT LeftFoot
            {
                OFFSET -0.000000 -0.461647 0.000000
                CHANNELS 3 Zrotation Xrotation Yrotation
                JOINT LeftToeBase
                {
                    OFFSET -0.000000 -0.066585 0.153658
                    CHANNELS 3 Zrotation Xrotation Yrotation
                    End Site
                    {
                        OFFSET -0.000000 0.000000 0.040975
                    }
                }
            }
        }
    }
    JOINT RightUpLeg
    {
        OFFSET -0.102438 0.000000 0.000000
        CHANNELS 3 Zrotation Xrotation Yrotation
        JOINT RightLeg
        {
            OFFSET -0.000000 -0.442852 0.000000
            CHANNELS 3 Zrotation Xrotation Yrotation
            JOINT RightFoot
            {
                OFFSET -0.000000 -0.461647 0.000000
                CHANNELS 3 Zrotation Xrotation Yrotation
                JOINT RightToeBase
                {
                    OFFSET -0.000000 -0.066585 0.153658
                    CHANNELS 3 Zrotation Xrotation Yrotation
                    End Site
                    {
                        OFFSET -0.000000 0.000000 0.040975
                    }
                }
            }
        }
    }
}
MOTION
Frames:    12
Frame Time:    0.010000
-0.527665    0.433844    0.166217    -2.919981    -11.848190    -7.530404    -2.269068    8.498665    0.327472    4.745490    -2.273976    0.146477    -6.731715    20.175762    1.375946    0.491230    -8.330058    1.284258    10.278294    1.568914    1.844062    -7.475841    -6.997973    -2.275041    -3.335207    -4.712087    10.418185    19.042006    -3.311957    6.548000    -13.312393    -2.860964    12.262271    11.355579    -16.883015    -0.923641    -2.957523    -1.269326    -1.453247    -39.683758    -4.717106    9.440939    135.344620    -67.138283    118.955452    -126.198158    64.606003    111.130699    -3.304007    -11.685188    -0.009100    0.000000    0.000000    0.000000    167.315445    -75.119789    168.718063    129.105316    75.671272    -139.662613    -17.408888    -5.955697    -0.597598    0.000000    0.000000    0.000000    
-0.527675    0.433951    0.166287    -2.903610    -11.800565    -7.517530    -2.247050    8.557204    0.332296    4.717622    -2.466255    0.155502    -6.772483    19.958067    1.365632    0.486060    -8.065780    1.284140    10.280359    1.537648    1.880592    -7.483598    -7.005381    -2.253698    -3.334272    -4.752824    10.384347    19.115070    -3.338427    6.614047    -13.326268    -2.857927    12.232582    11.408255    -16.911074    -0.929016    -2.984508    -1.256995    -1.364174    -39.620556    -4.697026    9.441152    135.407639    -67.115082    119.039116    -126.204102    64.611305    111.117722    -3.306197    -11.681870    -0.012607    0.000000    0.000000    0.000000    167.334335    -75.075714    168.748383    129.153641    75.671211    -139.703613    -17.398127    -5.966174    -0.616458    0.000000    0.000000    0.000000    
-0.527685    0.434058    0.166357    -2.887172    -11.752170    -7.504251    -2.225767    8.613593    0.336989    4.690583    -2.657059    0.165137    -6.806852    19.742170    1.355063    0.472895    -7.803947    1.282278    10.283369    1.505601    1.916453    -7.493855    -7.006554    -2.233447    -3.331347    -4.801207    10.350342    19.199785    -3.371951    6.679968    -13.339039    -2.856737    12.204123    11.460103    -16.933975    -0.937378    -3.011579    -1.245482    -1.274520    -39.559124    -4.677024    9.438995    135.472397    -67.091927    119.124207    -126.208649    64.615868    111.107567    -3.308580    -11.679529    -0.018133    0.000000    0.000000    0.000000    167.354218    -75.031075    168.779465    129.203094    75.671761    -139.747116    -17.384798    -5.977847    -0.633427    0.000000    0.000000    0.000000    
-0.527698    0.434166    0.166427    -2.870634    -11.703268    -7.490593    -2.205354    8.666077    0.342294    4.664430    -2.844172    0.174451    -6.829147    19.527864    1.344413    0.443383    -7.544808    1.277442    10.286134    1.474719    1.952155    -7.505800    -7.001861    -2.215417    -3.325297    -4.859468    10.317730    19.293968    -3.414940    6.745981    -13.351119    -2.857251    12.176241    11.512395    -16.950968    -0.947211    -3.038927    -1.235208    -1.185094    -39.500214    -4.657164    9.433099    135.538666    -67.068672    119.210724    -126.213081    64.620308    111.100296    -3.311017    -11.677776    -0.025054    0.000000    0.000000    0.000000    167.375122    -74.985886    168.812271    129.252350    75.671906    -139.790634    -17.370386    -5.989545    -0.648314    0.000000    0.000000    0.000000    
-0.527712    0.434275    0.166499    -2.854048    -11.654401    -7.476678    -2.186101    8.714293    0.348290    4.639715    -3.026897    0.182824    -6.838323    19.313416    1.335186    0.395332    -7.286531    1.270881    10.288073    1.445355    1.988714    -7.519210    -6.992421    -2.200294    -3.314586    -4.921523    10.287090    19.381166    -3.464313    6.800783    -13.362694    -2.858176    12.149335    11.565616    -16.960499    -0.957288    -3.067764    -1.227650    -1.096997    -39.441338    -4.638739    9.423826    135.605850    -67.045242    119.298607    -126.219574    64.625015    111.097076    -3.313338    -11.675690    -0.033392    0.000000    0.000000    0.000000    167.396255    -74.940414    168.846252    129.301682    75.671417    -139.833511    -17.359274    -5.999882    -0.660681    0.000000    0.000000    0.000000    
-0.527729    0.434384    0.166575    -2.837415    -11.605634    -7.462349    -2.167475    8.758151    0.353258    4.615962    -3.205157    0.191692    -6.838878    19.097412    1.327482    0.335861    -7.026862    1.264124    10.290866    1.414004    2.025248    -7.535621    -6.976986    -2.186405    -3.300750    -4.974109    10.258181    19.450420    -3.507335    6.844569    -13.373082    -2.857857    12.124026    11.624155    -16.962887    -0.964326    -3.110004    -1.224802    -1.014548    -39.375710    -4.624334    9.413669    135.673798    -67.022003    119.388031    -126.228104    64.630226    111.095474    -3.316127    -11.673878    -0.041817    0.000000    0.000000    0.000000    167.417633    -74.894836    168.881119    129.351532    75.670494    -139.875443    -17.352190    -6.008179    -0.671617    0.000000    0.000000    0.000000    
-0.527746    0.434492    0.166653    -2.820501    -11.557327    -7.447611    -2.148332    8.797620    0.358706    4.590935    -3.378451    0.199590    -6.838003    18.885540    1.319137    0.277126    -6.773310    1.256945    10.296069    1.379212    2.060053    -7.554703    -6.960254    -2.171393    -3.289375    -5.004853    10.232026    19.497713    -3.529099    6.890521    -13.381430    -2.855145    12.100510    11.675873    -16.959698    -0.975729    -3.141198    -1.226664    -0.929451    -39.320141    -4.613054    9.397045    135.742386    -66.999207    119.478271    -126.238617    64.634949    111.094604    -3.318769    -11.672659    -0.048536    0.000000    0.000000    0.000000    167.439285    -74.849449    168.916641    129.403671    75.669258    -139.918808    -17.346945    -6.015558    -0.681415    0.000000    0.000000    0.000000    
-0.527763    0.434598    0.166736    -2.803411    -11.510303    -7.433191    -2.128709    8.832573    0.364153    4.564994    -3.545130    0.207470    -6.844159    18.687601    1.308936    0.230818    -6.540638    1.249508    10.300303    1.346009    2.091815    -7.571733    -6.950122    -2.153568    -3.282828    -5.011868    10.207747    19.513466    -3.530866    6.922894    -13.389607    -2.849820    12.078909    11.728205    -16.952358    -0.987532    -3.174230    -1.233802    -0.846510    -39.270569    -4.605789    9.375551    135.808960    -66.977112    119.566025    -126.251450    64.638618    111.094170    -3.318884    -11.673164    -0.053057    0.000000    0.000000    0.000000    167.458221    -74.804947    168.950699    129.456009    75.667030    -139.962219    -17.342287    -6.022581    -0.689242    0.000000    0.000000    0.000000    
-0.527783    0.434705    0.166823    -2.786333    -11.465122    -7.420088    -2.110877    8.863010    0.370105    4.541308    -3.704156    0.216106    -6.862510    18.512209    1.296747    0.203677    -6.342028    1.242197    10.300942    1.319692    2.119184    -7.584398    -6.953377    -2.131527    -3.280498    -5.003210    10.182707    19.501446    -3.523322    6.926171    -13.399450    -2.841848    12.058950    11.782215    -16.941788    -0.998854    -3.209531    -1.246344    -0.767148    -39.228199    -4.603940    9.351693    135.870819    -66.955292    119.649292    -126.267845    64.642036    111.094246    -3.315799    -11.675166    -0.053977    0.000000    0.000000    0.000000    167.469208    -74.761658    168.977951    129.506714    75.664063    -140.004669    -17.337568    -6.029360    -0.694566    0.000000    0.000000    0.000000    
-0.527808    0.434811    0.166912    -2.769407    -11.421582    -7.409248    -2.095875    8.887711    0.378191    4.520567    -3.853262    0.224257    -6.892808    18.364548    1.283334    0.196660    -6.186924    1.235697    10.302930    1.293372    2.142314    -7.597797    -6.969206    -2.103645    -3.284315    -4.987617    10.153562    19.489792    -3.511888    6.908857    -13.410827    -2.831589    12.040606    11.837558    -16.930622    -1.008730    -3.244623    -1.262232    -0.691215    -39.178165    -4.604107    9.326131    135.926041    -66.932777    119.725960    -126.286392    64.645218    111.095100    -3.310398    -11.678183    -0.052040    0.000000    0.000000    0.000000    167.467102    -74.719170    168.991272    129.557449    75.662506    -140.049255    -17.334137    -6.035444    -0.697581    0.000000    0.000000    0.000000    
-0.527839    0.434913    0.166998    -2.752577    -11.379310    -7.401515    -2.083776    8.904908    0.388238    4.502279    -3.988995    0.232110    -6.934014    18.244051    1.270305    0.209836    -6.077298    1.231671    10.314322    1.248995    2.162838    -7.619918    -6.987319    -2.068799    -3.296166    -4.966368    10.119334    19.502239    -3.494445    6.881576    -13.423150    -2.819756    12.023936    11.893255    -16.920391    -1.016629    -3.277561    -1.279194    -0.618017    -39.103863    -4.602051    9.297291    135.974747    -66.908470    119.795876    -126.306969    64.648270    111.099060    -3.303264    -11.680411    -0.050435    0.000000    0.000000    0.000000    167.449112    -74.676666    168.986893    129.608185    75.663101    -140.096161    -17.332888    -6.040183    -0.699861    0.000000    0.000000    0.000000    
-0.527873    0.435007    0.167079    -2.735289    -11.337713    -7.397757    -2.074863    8.913873    0.399919    4.486288    -4.110269    0.241048    -6.983362    18.145695    1.258291    0.240174    -6.006242    1.230558    10.333654    1.187333    2.180891    -7.649411    -7.005010    -2.028389    -3.314946    -4.940531    10.085125    19.545094    -3.469670    6.855977    -13.436594    -2.806891    12.008837    11.948817    -16.910870    -1.022803    -3.309792    -1.298235    -0.549754    -39.019287    -4.601027    9.267887    136.017029    -66.881447    119.859970    -126.330177    64.651863    111.108833    -3.295519    -11.681329    -0.050995    0.000000    0.000000    0.000000    167.413849    -74.633072    168.964996    129.654633    75.664886    -140.140259    -17.332565    -6.043511    -0.702627    0.000000    0.000000    0.000000    
